<mxfile host="app.diagrams.net" modified="2023-12-13T07:37:22.545Z" agent="Mozilla/5.0 (Windows NT 10.0; Win64; x64) AppleWebKit/537.36 (KHTML, like Gecko) Chrome/119.0.0.0 Safari/537.36" etag="dBVpH7OTZtPYHH4jQxZE" version="21.7.2" type="github">
  <diagram name="画布1" id="画布1">
    <mxGraphModel dx="1434" dy="758" grid="1" gridSize="10" guides="1" tooltips="1" connect="1" arrows="1" fold="1" page="1" pageScale="1" pageWidth="827" pageHeight="1169" math="0" shadow="0">
      <root>
        <mxCell id="0" />
        <mxCell id="1" parent="0" />
        <UserObject label="" tags="Background" id="2">
          <mxCell style="vsdxID=1;fillColor=#66b2ff;gradientColor=none;shape=stencil(nZBRDoQgDERP03+WHsHFe5iISyOCQdT19kIaIxq//Jtp3zTpAFaTaUYNUkwx+F6v1EYD+AUpyRkdKCYFqACrzgf9C352LfuxyWRWg1/yhT/nRE5IsZWuZtCSK8CPeI0e/hF+jV7AJM4PO7KWCyr390bSiNtEtQM=);strokeColor=#000000;spacingTop=-3;spacingBottom=-3;spacingLeft=-3;spacingRight=-3;points=[];labelBackgroundColor=none;rounded=0;html=1;whiteSpace=wrap;" parent="1" vertex="1">
            <mxGeometry x="305" y="766" width="726" height="381" as="geometry" />
          </mxCell>
        </UserObject>
        <UserObject label="" tags="Background" id="3">
          <mxCell style="vsdxID=2;fillColor=#66ffff;gradientColor=none;shape=stencil(nZBRDoQgDERP03+WHsHFe5iISyOCQdT19kIaIxq//Jtp3zTpAFaTaUYNUkwx+F6v1EYD+AUpyRkdKCYFqACrzgf9C352LfuxyWRWg1/yhT/nRE5IsZWuZtCSK8CPeI0e/hF+jV7AJM4PO7KWCyr390bSiNtEtQM=);strokeColor=#000000;spacingTop=-3;spacingBottom=-3;spacingLeft=-3;spacingRight=-3;points=[];labelBackgroundColor=none;rounded=0;html=1;whiteSpace=wrap;" parent="1" vertex="1">
            <mxGeometry x="306" y="401" width="726" height="315" as="geometry" />
          </mxCell>
        </UserObject>
        <UserObject label="" tags="Background" id="4">
          <mxCell style="vsdxID=3;fillColor=#ffccff;gradientColor=none;shape=stencil(nZBRDoQgDERP03+WHsHFe5iISyOCQdT19kIaIxq//Jtp3zTpAFaTaUYNUkwx+F6v1EYD+AUpyRkdKCYFqACrzgf9C352LfuxyWRWg1/yhT/nRE5IsZWuZtCSK8CPeI0e/hF+jV7AJM4PO7KWCyr390bSiNtEtQM=);strokeColor=#323232;spacingTop=-3;spacingBottom=-3;spacingLeft=-3;spacingRight=-3;points=[];labelBackgroundColor=none;rounded=0;html=1;whiteSpace=wrap;" parent="1" vertex="1">
            <mxGeometry x="305" y="201" width="726" height="152" as="geometry" />
          </mxCell>
        </UserObject>
        <UserObject label="&lt;div style=&quot;font-size: 1px&quot;&gt;&lt;p style=&quot;text-align:center;margin-left:0;margin-right:0;margin-top:0px;margin-bottom:0px;text-indent:0;vertical-align:middle;direction:ltr;&quot;&gt;&lt;font style=&quot;font-size:17px;font-family:0;color:#000000;direction:ltr;letter-spacing:0px;line-height:120%;opacity:1&quot;&gt;&lt;b&gt;PC&lt;/b&gt;&lt;/font&gt;&lt;/p&gt;&lt;/div&gt;" tags="Background" id="5">
          <mxCell style="verticalAlign=middle;align=center;overflow=width;vsdxID=4;fillColor=none;gradientColor=none;image;aspect=fixed;image=data:image/png,iVBORw0KGgoAAAANSUhEUgAAAEwAAAAuCAYAAACCq/96AAAAAXNSR0IArs4c6QAAAvtJREFUaEPt201oE0EUwPH/CxXa0my8efPiRezRkyc/Mi3ooaDQUrSgYqkHQQVFRcQPeqhSUNAiflSohx7qFxZBoUmqZ7FHFcGbCCKCZiP21H2SxH433R27paSdwJJN9s2beb8dljBMhMVeuUIrqo8WjVm+iwEwfagGCAFKQEImSu+Tn6fOdZFrM9qV8mo516ycWvy+H5MarFSWVKx3ZbGW7zZEyqwdldAqg2XylxG5VMov0kY6+ThSX9UalC1sAR0DakG6McmLC5USDWxdzUa213+pVovI4875H1E2Az0Y7/z/gxmvMmzk0VRBYNYfBXYCvRjvjAMLu2fZ/AhIE3Ad451yYOFgL0F2g9zEJE84sDCwnD+M0gJ6G5M65sDCwZ6i7APuYbyjDiwULD+EShvwAON1OrAwsEx+EJH9wEOMd8iBhYFl/QHgIOggJtXhwMLB+oEjoEOYVLsDCwe7AxQf9k8wXqsDCwXL94EUf048x3h7HVgYWK5wA9WTCC9Iey0OLBTM70U5DbzCeHscWBhYxu9BOAeawaSaHVgoWL4bkQuIjJJOph1YONjkoukbjFdc5pn3iraAuFbWw6ZXmR1Y2OQqXXdgkZimgxyYA7MUsAx3M8yBWQpYhrsZ5sAsBSzD3QxzYJYCluFuhjkwSwHLcDfDHJilgGV4bDNM9Ypl19UbXt5EaLm8M3P3YfWWvtSRD2C8w3OTzF9AzPrFjWTXltrbqmgvcot08vjMWmaDjfotBAyvimJjKyJox6wfmkw3DZb7tQlNfI6tn1WVSBoxyQ/Fkspg2d8bIPi2AjW+RSfORu43UdOHamPk+FgDy2jC6+8NTNSOANtizR8lWZAwNDfkooSWb2yhC/Ru5PhYA+Ur0Cxk/WfAgvsIYu1vbjLlPk1el3UfKzXe0kBlTMgW3oFutR54PA3GgfIhjKP/zuEPUI9SB1qHSB0Uz6eOeHq3zlIGK/4D4r1127XWQPhBMNFafuhnfu5AajpBD6w1h4j1DpDgKru8T38BINeG90hLWEoAAAAASUVORK5CYII=;strokeColor=none;strokeWidth=0;points=[];labelBackgroundColor=none;rounded=0;html=1;whiteSpace=wrap;" parent="1" vertex="1">
            <mxGeometry x="378" y="230" width="93" height="65" as="geometry" />
          </mxCell>
        </UserObject>
        <UserObject label="&lt;div style=&quot;font-size: 1px&quot;&gt;&lt;p style=&quot;text-align:center;margin-left:0;margin-right:0;margin-top:0px;margin-bottom:0px;text-indent:0;vertical-align:middle;direction:ltr;&quot;&gt;&lt;font style=&quot;font-size:17px;font-family:0;color:#000000;direction:ltr;letter-spacing:0px;line-height:120%;opacity:1&quot;&gt;&lt;b&gt;移动设备&lt;/b&gt;&lt;/font&gt;&lt;/p&gt;&lt;/div&gt;" tags="Background" id="6">
          <mxCell style="verticalAlign=middle;align=center;overflow=width;vsdxID=5;fillColor=none;gradientColor=none;image;aspect=fixed;image=data:image/png,iVBORw0KGgoAAAANSUhEUgAAADMAAABLCAYAAADd0L+GAAAAAXNSR0IArs4c6QAAAmJJREFUaEPtm71rFGEQh5/ZIFjo+VVYKViqhY2VVdQL1jY2URAs/QOE/AOChbWFlQi2YiXkjtiIlY1o6oCNICq5rdTdG3nvYoQkusvsm/FC5oXlvuY3H8/v9qob4fcZlOdAHyFyHDgxuVQPbH4+m0/WkGKJq4eepfZk0uN0kLfAwdnsubGre/R7D4TB+iLI08bwvwesgFQwriePSo1QoVpTFBXjcU2x8b5qhVBD8See9ForkFPA7Q59XBcGo9fAJWOSNfq9M0btdtlw9ATlljHfmzTMKnDWlED1IwtHTpu0O4m6DUMa5hNwskNDrzpot0rnu+QShuWPPfCr1WrG5Iy2itwDQTsPo/VlFo7l/PrkRbH8bR6ZW9maNIbJi9mQLZwxQHORhDMumA1FwhkDNBdJOOOC2VAknDFAc5GEMy6YDUXCGQM0F0k444LZUCScMUBzkYQzLpgNRcIZAzQXSTjjgtlQJJwxQHORhDMumA1FwhkDNBdJOOOC2VAknDFAc5GEMy6YDUXCGQM0F0k444LZUCScMUBzkYQzLpgNRcIZAzQXSTjjgtlQJJwxQHOR7F9nXPDmL7IP/tecH5pLxnCmGbN8By2BEVCilJOdmu2n0yLD1nT5nSnGF7lyNG1JNZ9h+R7V882B7SJyD/OOfu9Cu9JpPWz0GLjTOr4hMPcwIHKDcfW5VYPF3AuUw61iWwTlH6ZF0d0KScOk1Y2sN+JuNfvPvCIfhOX1a4i8/C8NZC2qNzf2NPPeiFl7bJdsiX7v/nSYdAblXdDFze3Z6Rbt7B2Rn8CXyaX6FXhIv/c8NfoLd2Blr6UjujkAAAAASUVORK5CYII=;strokeColor=none;strokeWidth=0;points=[];labelBackgroundColor=none;rounded=0;html=1;whiteSpace=wrap;" parent="1" vertex="1">
            <mxGeometry x="628" y="224" width="50" height="70" as="geometry" />
          </mxCell>
        </UserObject>
        <UserObject label="&lt;div style=&quot;font-size: 1px&quot;&gt;&lt;p style=&quot;text-align:center;margin-left:0;margin-right:0;margin-top:0px;margin-bottom:0px;text-indent:0;vertical-align:middle;direction:ltr;&quot;&gt;&lt;font style=&quot;font-size:17px;font-family:0;color:#000000;direction:ltr;letter-spacing:0px;line-height:120%;opacity:1&quot;&gt;&lt;b&gt;其他终端&lt;/b&gt;&lt;/font&gt;&lt;/p&gt;&lt;/div&gt;" tags="Background" id="7">
          <mxCell style="verticalAlign=middle;align=center;overflow=width;vsdxID=6;fillColor=none;gradientColor=none;image;aspect=fixed;image=data:image/png,iVBORw0KGgoAAAANSUhEUgAAAFAAAABKCAYAAAAsXNNQAAAAAXNSR0IArs4c6QAAAuRJREFUeF7t3D9oE3EcBfD3veaCQppYEFx1cHDQRnBXIVkcFd06iCBOjq7W0bEIioPiXHEWTKyCo4uTU6Gi4OAftEkGtcl95ZL+lURz964JNu+WNum9793v05ceN/QMG1ttdR5mNzdf65tBAo/hnbuozryMd7DuXvWGyyuhgPstVEvzhnrjPoCrCePaPRaIcDkGVPtS18E+CjA1Xi8owF0D9M5ZcvbeitvUi34LGtzAGHD9Ur23JFKuZsC1QoDDegpwWKkB+wlQgKQAGVcDBUgKkHE1UICkABlXAwVICpBxNVCApAAZVwMFSAqQcTVQgKQAGVcDBUgKkHE1UICkABlXAwVICpBxNVCApAAZVwMFSAqQcTVQgKQAGVcDBUgKkHE1UICkABlXAwVICpBxNVCApAAZVwMFSAqQcTVQgKQAGVcDBUgKkHE1UICkABlP3ECg+0wAbZsCZ/pZ6P+FyYYIMAPAFQCHyTmTGn8UN/AGgNuTKkCs+x0qxSO958Y8b16E+yIxbMKi9gaV6ZPxonuA8VZrHQc6FxJLGAK4hTCEgIdwhAiCHNxDYNv7kecBhDALAWT/PAazJURRG2ZrANa6X/98Hb/vvv3nneTrtQ+oFB9s5LYAE09KGXj2/RqC4F7K9OBYpTj6texoYOYrGjCw9uUYLP8208O5L6NaOprpzCGHjeW3hnrjJ4D4I53V9hSV4rmshiWZMybA1deAnUpyon/d1/0OqqXrmc1LMGhMgI34ITZ9b40SnPvWrutPUkuVJUMC/O8Aa83zMH9CnvfO+MQ0cKk1iyiqAziYKWA8zHEF1eLDzOf+Y+BoPsL11glYNAfHHIBDu7dIW0CYW8Dp/fH9/Ug2HnDRpzDzrYBgXwHWLqAdTcO8AARlmM0CVga8PJLV9A7yCbBXMH8P2AoQLQP4ilzQxI9fLeSDJj4faOKSJb8L6bOI5ID1jK+gI5Tteyjy76cABUhWWIACJAXIONnA3yi+Sc3vWnE5AAAAAElFTkSuQmCC;strokeColor=none;strokeWidth=0;points=[];labelBackgroundColor=none;rounded=0;html=1;whiteSpace=wrap;" parent="1" vertex="1">
            <mxGeometry x="857" y="224" width="80" height="70" as="geometry" />
          </mxCell>
        </UserObject>
        <UserObject label="&lt;div style=&quot;font-size: 1px&quot;&gt;&lt;p style=&quot;text-align:center;margin-left:0;margin-right:0;margin-top:0px;margin-bottom:0px;text-indent:0;vertical-align:middle;direction:ltr;&quot;&gt;&lt;font style=&quot;font-size:21px;font-family:0;color:#000000;direction:ltr;letter-spacing:0px;line-height:120%;opacity:1&quot;&gt;&lt;b&gt;接&lt;br/&gt;入&lt;br/&gt;层&lt;/b&gt;&lt;/font&gt;&lt;/p&gt;&lt;/div&gt;" tags="Background" id="8">
          <mxCell style="verticalAlign=middle;align=center;overflow=width;vsdxID=7;fillColor=#ffccff;gradientColor=none;shape=stencil(nZBRDoQgDERP03+WHsHFe5iISyOCQdT19kIaIxq//Jtp3zTpAFaTaUYNUkwx+F6v1EYD+AUpyRkdKCYFqACrzgf9C352LfuxyWRWg1/yhT/nRE5IsZWuZtCSK8CPeI0e/hF+jV7AJM4PO7KWCyr390bSiNtEtQM=);strokeColor=#323232;spacingTop=-3;spacingBottom=-3;spacingLeft=-3;spacingRight=-3;points=[];labelBackgroundColor=none;rounded=0;html=1;whiteSpace=wrap;" parent="1" vertex="1">
            <mxGeometry x="157" y="201" width="103" height="152" as="geometry" />
          </mxCell>
        </UserObject>
        <UserObject label="" tags="Background" id="9">
          <mxCell style="vsdxID=8;fillColor=#99ffff;gradientColor=none;shape=stencil(nZBRDoQgDERP03+WHsHFe5iISyOCQdT19kIaIxq//Jtp3zTpAFaTaUYNUkwx+F6v1EYD+AUpyRkdKCYFqACrzgf9C352LfuxyWRWg1/yhT/nRE5IsZWuZtCSK8CPeI0e/hF+jV7AJM4PO7KWCyr390bSiNtEtQM=);strokeColor=#000000;spacingTop=-3;spacingBottom=-3;spacingLeft=-3;spacingRight=-3;points=[];labelBackgroundColor=none;rounded=0;html=1;whiteSpace=wrap;" parent="1" vertex="1">
            <mxGeometry x="343" y="421" width="666" height="101" as="geometry" />
          </mxCell>
        </UserObject>
        <UserObject label="" tags="Background" id="10">
          <mxCell style="vsdxID=9;fillColor=#99ffff;gradientColor=none;shape=stencil(nZBRDoQgDERP03+WHsHFe5iISyOCQdT19kIaIxq//Jtp3zTpAFaTaUYNUkwx+F6v1EYD+AUpyRkdKCYFqACrzgf9C352LfuxyWRWg1/yhT/nRE5IsZWuZtCSK8CPeI0e/hF+jV7AJM4PO7KWCyr390bSiNtEtQM=);strokeColor=#000000;spacingTop=-3;spacingBottom=-3;spacingLeft=-3;spacingRight=-3;points=[];labelBackgroundColor=none;rounded=0;html=1;whiteSpace=wrap;" parent="1" vertex="1">
            <mxGeometry x="343" y="590" width="666" height="101" as="geometry" />
          </mxCell>
        </UserObject>
        <UserObject label="&lt;div style=&quot;font-size: 1px&quot;&gt;&lt;p style=&quot;text-align:center;margin-left:0;margin-right:0;margin-top:0px;margin-bottom:0px;text-indent:0;vertical-align:middle;direction:ltr;&quot;&gt;&lt;font style=&quot;font-size:12px;font-family:0;color:#000000;direction:ltr;letter-spacing:0px;line-height:120%;opacity:1&quot;&gt;NGINX&lt;br/&gt;负载均衡&lt;/font&gt;&lt;/p&gt;&lt;/div&gt;" tags="Background" id="11">
          <mxCell style="verticalAlign=middle;align=center;overflow=width;vsdxID=10;fillColor=#ccffff;gradientColor=none;shape=stencil(nZBRDoQgDERP03+WHsHFe5iISyOCQdT19kIaIxq//Jtp3zTpAFaTaUYNUkwx+F6v1EYD+AUpyRkdKCYFqACrzgf9C352LfuxyWRWg1/yhT/nRE5IsZWuZtCSK8CPeI0e/hF+jV7AJM4PO7KWCyr390bSiNtEtQM=);strokeColor=#000000;spacingTop=-3;spacingBottom=-3;spacingLeft=-3;spacingRight=-3;points=[];labelBackgroundColor=none;rounded=0;html=1;whiteSpace=wrap;" parent="1" vertex="1">
            <mxGeometry x="399" y="433" width="204" height="69" as="geometry" />
          </mxCell>
        </UserObject>
        <UserObject label="&lt;div style=&quot;font-size: 1px&quot;&gt;&lt;p style=&quot;text-align:center;margin-left:0;margin-right:0;margin-top:0px;margin-bottom:0px;text-indent:0;vertical-align:middle;direction:ltr;&quot;&gt;&lt;font style=&quot;font-size:12px;font-family:0;color:#000000;direction:ltr;letter-spacing:0px;line-height:120%;opacity:1&quot;&gt;NGINX&lt;br/&gt;负载均衡&lt;/font&gt;&lt;/p&gt;&lt;/div&gt;" tags="Background" id="12">
          <mxCell style="verticalAlign=middle;align=center;overflow=width;vsdxID=11;fillColor=#ccffff;gradientColor=none;shape=stencil(nZBRDoQgDERP03+WHsHFe5iISyOCQdT19kIaIxq//Jtp3zTpAFaTaUYNUkwx+F6v1EYD+AUpyRkdKCYFqACrzgf9C352LfuxyWRWg1/yhT/nRE5IsZWuZtCSK8CPeI0e/hF+jV7AJM4PO7KWCyr390bSiNtEtQM=);strokeColor=#000000;spacingTop=-3;spacingBottom=-3;spacingLeft=-3;spacingRight=-3;points=[];labelBackgroundColor=none;rounded=0;html=1;whiteSpace=wrap;" parent="1" vertex="1">
            <mxGeometry x="722" y="433" width="204" height="69" as="geometry" />
          </mxCell>
        </UserObject>
        <UserObject label="&lt;div style=&quot;font-size: 1px&quot;&gt;&lt;p style=&quot;text-align:center;margin-left:0;margin-right:0;margin-top:0px;margin-bottom:0px;text-indent:0;vertical-align:middle;direction:ltr;&quot;&gt;&lt;font style=&quot;font-size:12px;font-family:0;color:#000000;direction:ltr;letter-spacing:0px;line-height:120%;opacity:1&quot;&gt;OPEN  API Gateway&lt;br/&gt;微服务网关&lt;/font&gt;&lt;/p&gt;&lt;/div&gt;" tags="Background" id="13">
          <mxCell style="verticalAlign=middle;align=center;overflow=width;vsdxID=12;fillColor=#ccffff;gradientColor=none;shape=stencil(nZBRDoQgDERP03+WHsHFe5iISyOCQdT19kIaIxq//Jtp3zTpAFaTaUYNUkwx+F6v1EYD+AUpyRkdKCYFqACrzgf9C352LfuxyWRWg1/yhT/nRE5IsZWuZtCSK8CPeI0e/hF+jV7AJM4PO7KWCyr390bSiNtEtQM=);strokeColor=#000000;spacingTop=-3;spacingBottom=-3;spacingLeft=-3;spacingRight=-3;points=[];labelBackgroundColor=none;rounded=0;html=1;whiteSpace=wrap;" parent="1" vertex="1">
            <mxGeometry x="399" y="607" width="204" height="69" as="geometry" />
          </mxCell>
        </UserObject>
        <UserObject label="&lt;div style=&quot;font-size: 1px&quot;&gt;&lt;p style=&quot;text-align:center;margin-left:0;margin-right:0;margin-top:0px;margin-bottom:0px;text-indent:0;vertical-align:middle;direction:ltr;&quot;&gt;&lt;font style=&quot;font-size:12px;font-family:0;color:#000000;direction:ltr;letter-spacing:0px;line-height:120%;opacity:1&quot;&gt;API Gateway&lt;br/&gt;微服务网关&lt;/font&gt;&lt;/p&gt;&lt;/div&gt;" tags="Background" id="14">
          <mxCell style="verticalAlign=middle;align=center;overflow=width;vsdxID=13;fillColor=#ccffff;gradientColor=none;shape=stencil(nZBRDoQgDERP03+WHsHFe5iISyOCQdT19kIaIxq//Jtp3zTpAFaTaUYNUkwx+F6v1EYD+AUpyRkdKCYFqACrzgf9C352LfuxyWRWg1/yhT/nRE5IsZWuZtCSK8CPeI0e/hF+jV7AJM4PO7KWCyr390bSiNtEtQM=);strokeColor=#000000;spacingTop=-3;spacingBottom=-3;spacingLeft=-3;spacingRight=-3;points=[];labelBackgroundColor=none;rounded=0;html=1;whiteSpace=wrap;" parent="1" vertex="1">
            <mxGeometry x="722" y="606" width="204" height="69" as="geometry" />
          </mxCell>
        </UserObject>
        <UserObject label="" tags="Background" id="15">
          <mxCell style="vsdxID=14;fillColor=#FFFFFF;gradientColor=none;shape=stencil(nZLNDsIgEISfZq9mZWPrvdb3aFIqRISG4t/bF7ox1kab4G0GvtlsGICqQTW9BIFD8O4s77oNCugAQmirpNchKqAaqOqclyfvrrZl3zeJTOribmnCg3NEKSLwyRYnd2TSaDsji/JPsthvSvpNbxFz8N0n/Up/ZbMGL14ij15ZYo2M4l1Mp43hXuf3yyLjEX8Cqkc=);strokeColor=#000000;spacingTop=-3;spacingBottom=-3;spacingLeft=-3;spacingRight=-3;points=[];labelBackgroundColor=none;rounded=0;html=1;whiteSpace=wrap;" parent="1" vertex="1">
            <mxGeometry x="622" y="356" width="28" height="45" as="geometry" />
          </mxCell>
        </UserObject>
        <UserObject label="" tags="Background" id="16">
          <mxCell style="vsdxID=15;fillColor=#FFFFFF;gradientColor=none;shape=stencil(nZJRDsIgEERPs79my0Z7gFrv0aS0EBEailZvL3RjrI02wb8ZeLPZMABVo2oGCQLH4N1ZTroNCugIQmirpNchKqAaqOqcl713V9uyH5pEJnVxtzThzjmiFBH4YIuzOzFptF2Qh/JPsqRdQb/pAjEH33/Sr/RXNmvw6iXy6I0ltsgo3sV02hjudXm/LjIe8Seg+gk=);strokeColor=#000000;spacingTop=-3;spacingBottom=-3;spacingLeft=-3;spacingRight=-3;points=[];labelBackgroundColor=none;rounded=0;html=1;whiteSpace=wrap;" parent="1" vertex="1">
            <mxGeometry x="628" y="524" width="36" height="67" as="geometry" />
          </mxCell>
        </UserObject>
        <UserObject label="&lt;div style=&quot;font-size: 1px&quot;&gt;&lt;p style=&quot;text-align:center;margin-left:0;margin-right:0;margin-top:0px;margin-bottom:0px;text-indent:0;vertical-align:middle;direction:ltr;&quot;&gt;&lt;font style=&quot;font-size:21px;font-family:0;color:#000000;direction:ltr;letter-spacing:0px;line-height:120%;opacity:1&quot;&gt;&lt;b&gt;接&lt;br/&gt;口&lt;br/&gt;层&lt;/b&gt;&lt;/font&gt;&lt;/p&gt;&lt;/div&gt;" tags="Background" id="17">
          <mxCell style="verticalAlign=middle;align=center;overflow=width;vsdxID=16;fillColor=#66ffff;gradientColor=none;shape=stencil(nZBRDoQgDERP03+WHsHFe5iISyOCQdT19kIaIxq//Jtp3zTpAFaTaUYNUkwx+F6v1EYD+AUpyRkdKCYFqACrzgf9C352LfuxyWRWg1/yhT/nRE5IsZWuZtCSK8CPeI0e/hF+jV7AJM4PO7KWCyr390bSiNtEtQM=);strokeColor=#323232;spacingTop=-3;spacingBottom=-3;spacingLeft=-3;spacingRight=-3;points=[];labelBackgroundColor=none;rounded=0;html=1;whiteSpace=wrap;" parent="1" vertex="1">
            <mxGeometry x="159" y="401" width="103" height="313" as="geometry" />
          </mxCell>
        </UserObject>
        <UserObject label="&lt;div style=&quot;font-size: 1px&quot;&gt;&lt;p style=&quot;text-align:center;margin-left:0;margin-right:0;margin-top:0px;margin-bottom:0px;text-indent:0;vertical-align:middle;direction:ltr;&quot;&gt;&lt;font style=&quot;font-size:14px;font-family:0;color:#000000;direction:ltr;letter-spacing:0px;line-height:120%;opacity:1&quot;&gt;&lt;b&gt;1.服务限流&lt;br/&gt;2.身份认证&lt;br/&gt;3.统一熔断&lt;br/&gt;4.访问控制&lt;/b&gt;&lt;/font&gt;&lt;/p&gt;&lt;/div&gt;" tags="Background" id="18">
          <mxCell style="verticalAlign=middle;align=center;overflow=width;vsdxID=17;fillColor=none;gradientColor=none;shape=stencil(nZBLDoAgDAVP0z3SIyjeg0SURgWD+Lu9EGL8xBW7N828Ji1gOWs5KeBs9s72aqPGa8AKOCejlSMfEqAALFvrVOfsYprEk4xmTKNd44Y99VhscHY8qU7iQOYhFixbvfhXzlZfYgj3hQG+54dReh2KEw==);strokeColor=none;strokeWidth=0;spacingTop=-3;spacingBottom=-3;spacingLeft=-3;spacingRight=-3;points=[];labelBackgroundColor=none;rounded=0;html=1;whiteSpace=wrap;" parent="1" vertex="1">
            <mxGeometry x="607" y="607" width="74" height="67" as="geometry" />
          </mxCell>
        </UserObject>
        <UserObject label="&lt;div style=&quot;font-size: 1px&quot;&gt;&lt;p style=&quot;text-align:center;margin-left:0;margin-right:0;margin-top:0px;margin-bottom:0px;text-indent:0;vertical-align:middle;direction:ltr;&quot;&gt;&lt;font style=&quot;font-size:14px;font-family:0;color:#000000;direction:ltr;letter-spacing:0px;line-height:120%;opacity:1&quot;&gt;&lt;b&gt;1.服务限流&lt;br/&gt;2.服务熔断&lt;br/&gt;&lt;br/&gt;&lt;/b&gt;&lt;/font&gt;&lt;font style=&quot;font-size:14px;font-family:0;color:#000000;direction:ltr;letter-spacing:0px;line-height:120%;opacity:1&quot;&gt;&lt;b&gt;3.动态路由&lt;/b&gt;&lt;/font&gt;&lt;/p&gt;&lt;/div&gt;" tags="Background" id="19">
          <mxCell style="verticalAlign=middle;align=center;overflow=width;vsdxID=18;fillColor=none;gradientColor=none;shape=stencil(nZBLDoAgDAVP0z3SIyjeg0SURgWD+Lu9EGL8xBW7N828Ji1gOWs5KeBs9s72aqPGa8AKOCejlSMfEqAALFvrVOfsYprEk4xmTKNd44Y99VhscHY8qU7iQOYhFixbvfhXzlZfYgj3hQG+54dReh2KEw==);strokeColor=none;strokeWidth=0;spacingTop=-3;spacingBottom=-3;spacingLeft=-3;spacingRight=-3;points=[];labelBackgroundColor=none;rounded=0;html=1;whiteSpace=wrap;" parent="1" vertex="1">
            <mxGeometry x="926" y="607" width="74" height="67" as="geometry" />
          </mxCell>
        </UserObject>
        <UserObject label="" tags="Background" id="20">
          <mxCell style="vsdxID=19;fillColor=#9999ff;gradientColor=none;shape=stencil(nZBRDoQgDERP03+WHsHFe5iISyOCQdT19kIaIxq//Jtp3zTpAFaTaUYNUkwx+F6v1EYD+AUpyRkdKCYFqACrzgf9C352LfuxyWRWg1/yhT/nRE5IsZWuZtCSK8CPeI0e/hF+jV7AJM4PO7KWCyr390bSiNtEtQM=);strokeColor=#000000;spacingTop=-3;spacingBottom=-3;spacingLeft=-3;spacingRight=-3;points=[];labelBackgroundColor=none;rounded=0;html=1;whiteSpace=wrap;" parent="1" vertex="1">
            <mxGeometry x="327" y="826" width="97" height="295" as="geometry" />
          </mxCell>
        </UserObject>
        <UserObject label="" tags="Background" id="21">
          <mxCell style="vsdxID=20;fillColor=#9999ff;gradientColor=none;shape=stencil(nZBRDoQgDERP03+WHsHFe5iISyOCQdT19kIaIxq//Jtp3zTpAFaTaUYNUkwx+F6v1EYD+AUpyRkdKCYFqACrzgf9C352LfuxyWRWg1/yhT/nRE5IsZWuZtCSK8CPeI0e/hF+jV7AJM4PO7KWCyr390bSiNtEtQM=);strokeColor=#000000;spacingTop=-3;spacingBottom=-3;spacingLeft=-3;spacingRight=-3;points=[];labelBackgroundColor=none;rounded=0;html=1;whiteSpace=wrap;" parent="1" vertex="1">
            <mxGeometry x="919" y="826" width="97" height="295" as="geometry" />
          </mxCell>
        </UserObject>
        <UserObject label="" tags="Background" id="22">
          <mxCell style="vsdxID=21;fillColor=#9999ff;gradientColor=none;shape=stencil(nZBRDoQgDERP03+WHsHFe5iISyOCQdT19kIaIxq//Jtp3zTpAFaTaUYNUkwx+F6v1EYD+AUpyRkdKCYFqACrzgf9C352LfuxyWRWg1/yhT/nRE5IsZWuZtCSK8CPeI0e/hF+jV7AJM4PO7KWCyr390bSiNtEtQM=);strokeColor=#000000;spacingTop=-3;spacingBottom=-3;spacingLeft=-3;spacingRight=-3;points=[];labelBackgroundColor=none;rounded=0;html=1;whiteSpace=wrap;" parent="1" vertex="1">
            <mxGeometry x="471" y="826" width="400" height="295" as="geometry" />
          </mxCell>
        </UserObject>
        <UserObject label="&lt;div style=&quot;font-size: 1px&quot;&gt;&lt;p style=&quot;text-align:center;margin-left:0;margin-right:0;margin-top:0px;margin-bottom:0px;text-indent:0;vertical-align:middle;direction:ltr;&quot;&gt;&lt;font style=&quot;font-size:12px;font-family:0;color:#000000;direction:ltr;letter-spacing:0px;line-height:120%;opacity:1&quot;&gt;&lt;b&gt;Seltinel&lt;br/&gt;熔断&lt;/b&gt;&lt;/font&gt;&lt;/p&gt;&lt;/div&gt;" tags="Background" id="23">
          <mxCell style="verticalAlign=middle;align=center;overflow=width;vsdxID=22;fillColor=#cce5ff;gradientColor=none;shape=stencil(nZBRDoQgDERP03+WHsHFe5iISyOCQdT19kIaIxq//Jtp3zTpAFaTaUYNUkwx+F6v1EYD+AUpyRkdKCYFqACrzgf9C352LfuxyWRWg1/yhT/nRE5IsZWuZtCSK8CPeI0e/hF+jV7AJM4PO7KWCyr390bSiNtEtQM=);strokeColor=#000000;spacingTop=-3;spacingBottom=-3;spacingLeft=-3;spacingRight=-3;points=[];labelBackgroundColor=none;rounded=0;html=1;whiteSpace=wrap;" parent="1" vertex="1">
            <mxGeometry x="333" y="851" width="86" height="61" as="geometry" />
          </mxCell>
        </UserObject>
        <UserObject label="&lt;div style=&quot;font-size: 1px&quot;&gt;&lt;p style=&quot;text-align:center;margin-left:0;margin-right:0;margin-top:0px;margin-bottom:0px;text-indent:0;vertical-align:middle;direction:ltr;&quot;&gt;&lt;font style=&quot;font-size:12px;font-family:0;color:#000000;direction:ltr;letter-spacing:0px;line-height:120%;opacity:1&quot;&gt;&lt;b&gt;Security&lt;br/&gt;安全控制&lt;/b&gt;&lt;/font&gt;&lt;/p&gt;&lt;/div&gt;" tags="Background" id="24">
          <mxCell style="verticalAlign=middle;align=center;overflow=width;vsdxID=23;fillColor=#cce5ff;gradientColor=none;shape=stencil(nZBRDoQgDERP03+WHsHFe5iISyOCQdT19kIaIxq//Jtp3zTpAFaTaUYNUkwx+F6v1EYD+AUpyRkdKCYFqACrzgf9C352LfuxyWRWg1/yhT/nRE5IsZWuZtCSK8CPeI0e/hF+jV7AJM4PO7KWCyr390bSiNtEtQM=);strokeColor=#000000;spacingTop=-3;spacingBottom=-3;spacingLeft=-3;spacingRight=-3;points=[];labelBackgroundColor=none;rounded=0;html=1;whiteSpace=wrap;" parent="1" vertex="1">
            <mxGeometry x="333" y="936" width="86" height="61" as="geometry" />
          </mxCell>
        </UserObject>
        <UserObject label="&lt;div style=&quot;font-size: 1px&quot;&gt;&lt;p style=&quot;text-align:center;margin-left:0;margin-right:0;margin-top:0px;margin-bottom:0px;text-indent:0;vertical-align:middle;direction:ltr;&quot;&gt;&lt;font style=&quot;font-size:12px;font-family:0;color:#000000;direction:ltr;letter-spacing:0px;line-height:120%;opacity:1&quot;&gt;&lt;b&gt;ELK&lt;br/&gt;日志分析&lt;/b&gt;&lt;/font&gt;&lt;/p&gt;&lt;/div&gt;" tags="Background" id="25">
          <mxCell style="verticalAlign=middle;align=center;overflow=width;vsdxID=24;fillColor=#cce5ff;gradientColor=none;shape=stencil(nZBRDoQgDERP03+WHsHFe5iISyOCQdT19kIaIxq//Jtp3zTpAFaTaUYNUkwx+F6v1EYD+AUpyRkdKCYFqACrzgf9C352LfuxyWRWg1/yhT/nRE5IsZWuZtCSK8CPeI0e/hF+jV7AJM4PO7KWCyr390bSiNtEtQM=);strokeColor=#000000;spacingTop=-3;spacingBottom=-3;spacingLeft=-3;spacingRight=-3;points=[];labelBackgroundColor=none;rounded=0;html=1;whiteSpace=wrap;" parent="1" vertex="1">
            <mxGeometry x="333" y="1040" width="86" height="61" as="geometry" />
          </mxCell>
        </UserObject>
        <UserObject label="&lt;div style=&quot;font-size: 1px&quot;&gt;&lt;p style=&quot;text-align:center;margin-left:0;margin-right:0;margin-top:0px;margin-bottom:0px;text-indent:0;vertical-align:middle;direction:ltr;&quot;&gt;&lt;font style=&quot;font-size:12px;font-family:0;color:#000000;direction:ltr;letter-spacing:0px;line-height:120%;opacity:1&quot;&gt;&lt;b&gt;Nacos&lt;br/&gt;注册中心&lt;/b&gt;&lt;/font&gt;&lt;/p&gt;&lt;/div&gt;" tags="Background" id="26">
          <mxCell style="verticalAlign=middle;align=center;overflow=width;vsdxID=25;fillColor=#cce5ff;gradientColor=none;shape=stencil(nZBRDoQgDERP03+WHsHFe5iISyOCQdT19kIaIxq//Jtp3zTpAFaTaUYNUkwx+F6v1EYD+AUpyRkdKCYFqACrzgf9C352LfuxyWRWg1/yhT/nRE5IsZWuZtCSK8CPeI0e/hF+jV7AJM4PO7KWCyr390bSiNtEtQM=);strokeColor=#000000;spacingTop=-3;spacingBottom=-3;spacingLeft=-3;spacingRight=-3;points=[];labelBackgroundColor=none;rounded=0;html=1;whiteSpace=wrap;" parent="1" vertex="1">
            <mxGeometry x="925" y="845" width="86" height="61" as="geometry" />
          </mxCell>
        </UserObject>
        <UserObject label="&lt;div style=&quot;font-size: 1px&quot;&gt;&lt;p style=&quot;text-align:center;margin-left:0;margin-right:0;margin-top:0px;margin-bottom:0px;text-indent:0;vertical-align:middle;direction:ltr;&quot;&gt;&lt;font style=&quot;font-size:12px;font-family:0;color:#000000;direction:ltr;letter-spacing:0px;line-height:120%;opacity:1&quot;&gt;&lt;b&gt;Nacos&lt;br/&gt;配置中心&lt;/b&gt;&lt;/font&gt;&lt;/p&gt;&lt;/div&gt;" tags="Background" id="27">
          <mxCell style="verticalAlign=middle;align=center;overflow=width;vsdxID=26;fillColor=#cce5ff;gradientColor=none;shape=stencil(nZBRDoQgDERP03+WHsHFe5iISyOCQdT19kIaIxq//Jtp3zTpAFaTaUYNUkwx+F6v1EYD+AUpyRkdKCYFqACrzgf9C352LfuxyWRWg1/yhT/nRE5IsZWuZtCSK8CPeI0e/hF+jV7AJM4PO7KWCyr390bSiNtEtQM=);strokeColor=#000000;spacingTop=-3;spacingBottom=-3;spacingLeft=-3;spacingRight=-3;points=[];labelBackgroundColor=none;rounded=0;html=1;whiteSpace=wrap;" parent="1" vertex="1">
            <mxGeometry x="925" y="936" width="86" height="61" as="geometry" />
          </mxCell>
        </UserObject>
        <UserObject label="&lt;div style=&quot;font-size: 1px&quot;&gt;&lt;p style=&quot;text-align:center;margin-left:0;margin-right:0;margin-top:0px;margin-bottom:0px;text-indent:0;vertical-align:middle;direction:ltr;&quot;&gt;&lt;font style=&quot;font-size:12px;font-family:0;color:#000000;direction:ltr;letter-spacing:0px;line-height:120%;opacity:1&quot;&gt;&lt;b&gt;Feign&lt;br/&gt;服务发现&lt;/b&gt;&lt;/font&gt;&lt;/p&gt;&lt;/div&gt;" tags="Background" id="28">
          <mxCell style="verticalAlign=middle;align=center;overflow=width;vsdxID=27;fillColor=#cce5ff;gradientColor=none;shape=stencil(nZBRDoQgDERP03+WHsHFe5iISyOCQdT19kIaIxq//Jtp3zTpAFaTaUYNUkwx+F6v1EYD+AUpyRkdKCYFqACrzgf9C352LfuxyWRWg1/yhT/nRE5IsZWuZtCSK8CPeI0e/hF+jV7AJM4PO7KWCyr390bSiNtEtQM=);strokeColor=#000000;spacingTop=-3;spacingBottom=-3;spacingLeft=-3;spacingRight=-3;points=[];labelBackgroundColor=none;rounded=0;html=1;whiteSpace=wrap;" parent="1" vertex="1">
            <mxGeometry x="925" y="1037" width="86" height="61" as="geometry" />
          </mxCell>
        </UserObject>
        <UserObject label="&lt;div style=&quot;font-size: 1px&quot;&gt;&lt;p style=&quot;text-align:center;margin-left:0;margin-right:0;margin-top:0px;margin-bottom:0px;text-indent:0;vertical-align:middle;direction:ltr;&quot;&gt;&lt;font style=&quot;font-size:15px;font-family:0;color:#000000;direction:ltr;letter-spacing:0px;line-height:120%;opacity:1&quot;&gt;&lt;b&gt;服 务 组 件&lt;br/&gt;监控&amp;amp;保护&lt;/b&gt;&lt;/font&gt;&lt;/p&gt;&lt;/div&gt;" tags="Background" id="29">
          <mxCell style="verticalAlign=middle;align=center;overflow=width;vsdxID=28;fillColor=none;gradientColor=none;shape=stencil(nZBLDoAgDAVP0z3SIyjeg0SURgWD+Lu9EGL8xBW7N828Ji1gOWs5KeBs9s72aqPGa8AKOCejlSMfEqAALFvrVOfsYprEk4xmTKNd44Y99VhscHY8qU7iQOYhFixbvfhXzlZfYgj3hQG+54dReh2KEw==);strokeColor=none;strokeWidth=0;spacingTop=-3;spacingBottom=-3;spacingLeft=-3;spacingRight=-3;points=[];labelBackgroundColor=none;rounded=0;html=1;whiteSpace=wrap;" parent="1" vertex="1">
            <mxGeometry x="327" y="777" width="99" height="49" as="geometry" />
          </mxCell>
        </UserObject>
        <UserObject label="&lt;div style=&quot;font-size: 1px&quot;&gt;&lt;p style=&quot;text-align:center;margin-left:0;margin-right:0;margin-top:0px;margin-bottom:0px;text-indent:0;vertical-align:middle;direction:ltr;&quot;&gt;&lt;font style=&quot;font-size:15px;font-family:0;color:#000000;direction:ltr;letter-spacing:0px;line-height:120%;opacity:1&quot;&gt;&lt;b&gt;服 务 组 件&lt;br/&gt;治理&amp;amp;配置&lt;/b&gt;&lt;/font&gt;&lt;/p&gt;&lt;/div&gt;" tags="Background" id="30">
          <mxCell style="verticalAlign=middle;align=center;overflow=width;vsdxID=29;fillColor=none;gradientColor=none;shape=stencil(nZBLDoAgDAVP0z3SIyjeg0SURgWD+Lu9EGL8xBW7N828Ji1gOWs5KeBs9s72aqPGa8AKOCejlSMfEqAALFvrVOfsYprEk4xmTKNd44Y99VhscHY8qU7iQOYhFixbvfhXzlZfYgj3hQG+54dReh2KEw==);strokeColor=none;strokeWidth=0;spacingTop=-3;spacingBottom=-3;spacingLeft=-3;spacingRight=-3;points=[];labelBackgroundColor=none;rounded=0;html=1;whiteSpace=wrap;" parent="1" vertex="1">
            <mxGeometry x="912" y="773" width="99" height="49" as="geometry" />
          </mxCell>
        </UserObject>
        <UserObject label="" tags="Background" id="31">
          <mxCell style="vsdxID=30;fillColor=#cce5ff;gradientColor=none;shape=stencil(nZBRDoQgDERP03+WHsHFe5iISyOCQdT19kIaIxq//Jtp3zTpAFaTaUYNUkwx+F6v1EYD+AUpyRkdKCYFqACrzgf9C352LfuxyWRWg1/yhT/nRE5IsZWuZtCSK8CPeI0e/hF+jV7AJM4PO7KWCyr390bSiNtEtQM=);strokeColor=#000000;spacingTop=-3;spacingBottom=-3;spacingLeft=-3;spacingRight=-3;points=[];labelBackgroundColor=none;rounded=0;html=1;whiteSpace=wrap;" parent="1" vertex="1">
            <mxGeometry x="497" y="1020" width="359" height="88" as="geometry" />
          </mxCell>
        </UserObject>
        <UserObject label="" tags="Background" id="32">
          <mxCell style="vsdxID=31;fillColor=#cce5ff;gradientColor=none;shape=stencil(nZBRDoQgDERP03+WHsHFe5iISyOCQdT19kIaIxq//Jtp3zTpAFaTaUYNUkwx+F6v1EYD+AUpyRkdKCYFqACrzgf9C352LfuxyWRWg1/yhT/nRE5IsZWuZtCSK8CPeI0e/hF+jV7AJM4PO7KWCyr390bSiNtEtQM=);strokeColor=#000000;spacingTop=-3;spacingBottom=-3;spacingLeft=-3;spacingRight=-3;points=[];labelBackgroundColor=none;rounded=0;html=1;whiteSpace=wrap;" parent="1" vertex="1">
            <mxGeometry x="497" y="875" width="359" height="94" as="geometry" />
          </mxCell>
        </UserObject>
        <UserObject label="&lt;div style=&quot;font-size: 1px&quot;&gt;&lt;p style=&quot;text-align:center;margin-left:0;margin-right:0;margin-top:0px;margin-bottom:0px;text-indent:0;vertical-align:middle;direction:ltr;&quot;&gt;&lt;font style=&quot;font-size:12px;font-family:0;color:#000000;direction:ltr;letter-spacing:0px;line-height:120%;opacity:1&quot;&gt;&lt;b&gt;业务服务A&lt;/b&gt;&lt;/font&gt;&lt;/p&gt;&lt;/div&gt;" tags="Background" id="33">
          <mxCell style="verticalAlign=middle;align=center;overflow=width;vsdxID=32;fillColor=#cce5ff;gradientColor=none;shape=stencil(nZBRDoQgDERP03+WHsHFe5iISyOCQdT19kIaIxq//Jtp3zTpAFaTaUYNUkwx+F6v1EYD+AUpyRkdKCYFqACrzgf9C352LfuxyWRWg1/yhT/nRE5IsZWuZtCSK8CPeI0e/hF+jV7AJM4PO7KWCyr390bSiNtEtQM=);strokeColor=#000000;spacingTop=-3;spacingBottom=-3;spacingLeft=-3;spacingRight=-3;points=[];labelBackgroundColor=none;rounded=0;html=1;whiteSpace=wrap;" parent="1" vertex="1">
            <mxGeometry x="511" y="888" width="100" height="70" as="geometry" />
          </mxCell>
        </UserObject>
        <UserObject label="&lt;div style=&quot;font-size: 1px&quot;&gt;&lt;p style=&quot;text-align:center;margin-left:0;margin-right:0;margin-top:0px;margin-bottom:0px;text-indent:0;vertical-align:middle;direction:ltr;&quot;&gt;&lt;font style=&quot;font-size:12px;font-family:0;color:#000000;direction:ltr;letter-spacing:0px;line-height:120%;opacity:1&quot;&gt;&lt;b&gt;业务服务B&lt;/b&gt;&lt;/font&gt;&lt;/p&gt;&lt;/div&gt;" tags="Background" id="34">
          <mxCell style="verticalAlign=middle;align=center;overflow=width;vsdxID=33;fillColor=#cce5ff;gradientColor=none;shape=stencil(nZBRDoQgDERP03+WHsHFe5iISyOCQdT19kIaIxq//Jtp3zTpAFaTaUYNUkwx+F6v1EYD+AUpyRkdKCYFqACrzgf9C352LfuxyWRWg1/yhT/nRE5IsZWuZtCSK8CPeI0e/hF+jV7AJM4PO7KWCyr390bSiNtEtQM=);strokeColor=#000000;spacingTop=-3;spacingBottom=-3;spacingLeft=-3;spacingRight=-3;points=[];labelBackgroundColor=none;rounded=0;html=1;whiteSpace=wrap;" parent="1" vertex="1">
            <mxGeometry x="631" y="888" width="100" height="70" as="geometry" />
          </mxCell>
        </UserObject>
        <UserObject label="&lt;div style=&quot;font-size: 1px&quot;&gt;&lt;p style=&quot;text-align:center;margin-left:0;margin-right:0;margin-top:0px;margin-bottom:0px;text-indent:0;vertical-align:middle;direction:ltr;&quot;&gt;&lt;font style=&quot;font-size:12px;font-family:0;color:#000000;direction:ltr;letter-spacing:0px;line-height:120%;opacity:1&quot;&gt;&lt;b&gt;业务服务C&lt;/b&gt;&lt;/font&gt;&lt;/p&gt;&lt;/div&gt;" tags="Background" id="35">
          <mxCell style="verticalAlign=middle;align=center;overflow=width;vsdxID=34;fillColor=#cce5ff;gradientColor=none;shape=stencil(nZBRDoQgDERP03+WHsHFe5iISyOCQdT19kIaIxq//Jtp3zTpAFaTaUYNUkwx+F6v1EYD+AUpyRkdKCYFqACrzgf9C352LfuxyWRWg1/yhT/nRE5IsZWuZtCSK8CPeI0e/hF+jV7AJM4PO7KWCyr390bSiNtEtQM=);strokeColor=#000000;spacingTop=-3;spacingBottom=-3;spacingLeft=-3;spacingRight=-3;points=[];labelBackgroundColor=none;rounded=0;html=1;whiteSpace=wrap;" parent="1" vertex="1">
            <mxGeometry x="745" y="888" width="100" height="70" as="geometry" />
          </mxCell>
        </UserObject>
        <UserObject label="&lt;div style=&quot;font-size: 1px&quot;&gt;&lt;p style=&quot;text-align:center;margin-left:0;margin-right:0;margin-top:0px;margin-bottom:0px;text-indent:0;vertical-align:middle;direction:ltr;&quot;&gt;&lt;font style=&quot;font-size:20px;font-family:0;color:#000000;direction:ltr;letter-spacing:0px;line-height:120%;opacity:1&quot;&gt;&lt;b&gt;业务服务&lt;/b&gt;&lt;/font&gt;&lt;/p&gt;&lt;/div&gt;" tags="Background" id="36">
          <mxCell style="verticalAlign=middle;align=center;overflow=width;vsdxID=35;fillColor=none;gradientColor=none;shape=stencil(nZBLDoAgDAVP0z3SIyjeg0SURgWD+Lu9EGL8xBW7N828Ji1gOWs5KeBs9s72aqPGa8AKOCejlSMfEqAALFvrVOfsYprEk4xmTKNd44Y99VhscHY8qU7iQOYhFixbvfhXzlZfYgj3hQG+54dReh2KEw==);strokeColor=none;strokeWidth=0;spacingTop=-3;spacingBottom=-3;spacingLeft=-3;spacingRight=-3;points=[];labelBackgroundColor=none;rounded=0;html=1;whiteSpace=wrap;" parent="1" vertex="1">
            <mxGeometry x="573" y="834" width="185" height="28" as="geometry" />
          </mxCell>
        </UserObject>
        <UserObject label="&lt;div style=&quot;font-size: 1px&quot;&gt;&lt;p style=&quot;text-align:center;margin-left:0;margin-right:0;margin-top:0px;margin-bottom:0px;text-indent:0;vertical-align:middle;direction:ltr;&quot;&gt;&lt;font style=&quot;font-size:12px;font-family:0;color:#000000;direction:ltr;letter-spacing:0px;line-height:120%;opacity:1&quot;&gt;&lt;b&gt;Oauth2&lt;br/&gt;认证授权服务&lt;/b&gt;&lt;/font&gt;&lt;/p&gt;&lt;/div&gt;" tags="Background" id="37">
          <mxCell style="verticalAlign=middle;align=center;overflow=width;vsdxID=36;fillColor=#cce5ff;gradientColor=none;shape=stencil(nZBRDoQgDERP03+WHsHFe5iISyOCQdT19kIaIxq//Jtp3zTpAFaTaUYNUkwx+F6v1EYD+AUpyRkdKCYFqACrzgf9C352LfuxyWRWg1/yhT/nRE5IsZWuZtCSK8CPeI0e/hF+jV7AJM4PO7KWCyr390bSiNtEtQM=);strokeColor=#000000;spacingTop=-3;spacingBottom=-3;spacingLeft=-3;spacingRight=-3;points=[];labelBackgroundColor=none;rounded=0;html=1;whiteSpace=wrap;" parent="1" vertex="1">
            <mxGeometry x="515" y="1029" width="100" height="70" as="geometry" />
          </mxCell>
        </UserObject>
        <UserObject label="&lt;div style=&quot;font-size: 1px&quot;&gt;&lt;p style=&quot;text-align:center;margin-left:0;margin-right:0;margin-top:0px;margin-bottom:0px;text-indent:0;vertical-align:middle;direction:ltr;&quot;&gt;&lt;font style=&quot;font-size:12px;font-family:0;color:#000000;direction:ltr;letter-spacing:0px;line-height:120%;opacity:1&quot;&gt;&lt;b&gt;Hx-Base&lt;br/&gt;基础服务&lt;/b&gt;&lt;/font&gt;&lt;/p&gt;&lt;/div&gt;" tags="Background" id="38">
          <mxCell style="verticalAlign=middle;align=center;overflow=width;vsdxID=37;fillColor=#cce5ff;gradientColor=none;shape=stencil(nZBRDoQgDERP03+WHsHFe5iISyOCQdT19kIaIxq//Jtp3zTpAFaTaUYNUkwx+F6v1EYD+AUpyRkdKCYFqACrzgf9C352LfuxyWRWg1/yhT/nRE5IsZWuZtCSK8CPeI0e/hF+jV7AJM4PO7KWCyr390bSiNtEtQM=);strokeColor=#000000;spacingTop=-3;spacingBottom=-3;spacingLeft=-3;spacingRight=-3;points=[];labelBackgroundColor=none;rounded=0;html=1;whiteSpace=wrap;" parent="1" vertex="1">
            <mxGeometry x="631" y="1029" width="100" height="70" as="geometry" />
          </mxCell>
        </UserObject>
        <UserObject label="&lt;div style=&quot;font-size: 1px&quot;&gt;&lt;p style=&quot;text-align:center;margin-left:0;margin-right:0;margin-top:0px;margin-bottom:0px;text-indent:0;vertical-align:middle;direction:ltr;&quot;&gt;&lt;font style=&quot;font-size:12px;font-family:0;color:#000000;direction:ltr;letter-spacing:0px;line-height:120%;opacity:1&quot;&gt;&lt;b&gt;XXl-JOB&lt;br/&gt;调度服务&lt;/b&gt;&lt;/font&gt;&lt;/p&gt;&lt;/div&gt;" tags="Background" id="39">
          <mxCell style="verticalAlign=middle;align=center;overflow=width;vsdxID=38;fillColor=#cce5ff;gradientColor=none;shape=stencil(nZBRDoQgDERP03+WHsHFe5iISyOCQdT19kIaIxq//Jtp3zTpAFaTaUYNUkwx+F6v1EYD+AUpyRkdKCYFqACrzgf9C352LfuxyWRWg1/yhT/nRE5IsZWuZtCSK8CPeI0e/hF+jV7AJM4PO7KWCyr390bSiNtEtQM=);strokeColor=#000000;spacingTop=-3;spacingBottom=-3;spacingLeft=-3;spacingRight=-3;points=[];labelBackgroundColor=none;rounded=0;html=1;whiteSpace=wrap;" parent="1" vertex="1">
            <mxGeometry x="745" y="1032" width="100" height="70" as="geometry" />
          </mxCell>
        </UserObject>
        <UserObject label="" tags="Background" id="40">
          <mxCell style="vsdxID=39;fillColor=#FFFFFF;gradientColor=none;shape=stencil(pZLdDsIgDIWfhtuF0eHi9ZzvsWRMiAgLw7+3F9IYp0YC8a6HfqdpySHQLXKYBWF08c4exVWNXhLYEcaUkcIpHyoCPYFusk4cnD2bEfU8RDJWJ3uJE27oo9HB6B0VR7lHUiuzIhmveP1GF8EAv+m2qZrtH3RikZrmX/g9+OnOxDdtyY+U0clV8m9MkaF4xWRSWmPK1v3PWIUnjCT0Dw==);strokeColor=#000000;spacingTop=-3;spacingBottom=-3;spacingLeft=-3;spacingRight=-3;points=[];labelBackgroundColor=none;rounded=0;html=1;whiteSpace=wrap;" parent="1" vertex="1">
            <mxGeometry x="424" y="955" width="45" height="23" as="geometry" />
          </mxCell>
        </UserObject>
        <UserObject label="" tags="Background" id="41">
          <mxCell style="vsdxID=40;fillColor=#FFFFFF;gradientColor=none;shape=stencil(pZLdDsIgDIWfprcL0myL13O+x5IxISIsDP/eXkhjnBoJxLse+p2mJQewW+QwC+Bs8c4exVWNXgLugHNlpHDKhwqwB+wm68TB2bMZSc9DJGN1spc44UY+Fh2c3UnVJPdEamVWJG+qbf1GF8GIv+kWK/YPnVhkw/Iv/B78dGfiTVvyI2V0cpX8G1NkKF4xmZTWlLJ1/zNW4Ykiif0D);strokeColor=#000000;spacingTop=-3;spacingBottom=-3;spacingLeft=-3;spacingRight=-3;points=[];labelBackgroundColor=none;rounded=0;html=1;whiteSpace=wrap;" parent="1" vertex="1">
            <mxGeometry x="872" y="944" width="47" height="25" as="geometry" />
          </mxCell>
        </UserObject>
        <UserObject label="" tags="Background" id="42">
          <mxCell style="vsdxID=41;fillColor=#FFFFFF;gradientColor=none;shape=stencil(nZLNDsIgEISfZq9mZSPqudb3aFIqRISG4t/bC26MtdEmeJuBbzYbBqBq0E2vQOAQgz+qq2mjBtqBEMZpFUxMCqgGqjof1CH4s2vZ900mszr5S55w4xxRjgi8s8Wn2zNpjRuRcv0nKeViu/lNLxFL8NUn/Up/ZYsGT16ijJ5ZYo5M4l1MZ6zlXsf30yLTEX8Cqh8=);strokeColor=#000000;spacingTop=-3;spacingBottom=-3;spacingLeft=-3;spacingRight=-3;points=[];labelBackgroundColor=none;rounded=0;html=1;whiteSpace=wrap;" parent="1" vertex="1">
            <mxGeometry x="655" y="970" width="33" height="50" as="geometry" />
          </mxCell>
        </UserObject>
        <UserObject label="&lt;div style=&quot;font-size: 1px&quot;&gt;&lt;p style=&quot;text-align:center;margin-left:0;margin-right:0;margin-top:0px;margin-bottom:0px;text-indent:0;vertical-align:middle;direction:ltr;&quot;&gt;&lt;font style=&quot;font-size:21px;font-family:0;color:#000000;direction:ltr;letter-spacing:0px;line-height:120%;opacity:1&quot;&gt;&lt;b&gt;服&lt;br/&gt;务&lt;br/&gt;层&lt;/b&gt;&lt;/font&gt;&lt;/p&gt;&lt;/div&gt;" tags="Background" id="43">
          <mxCell style="verticalAlign=middle;align=center;overflow=width;vsdxID=42;fillColor=#66b2ff;gradientColor=none;shape=stencil(nZBRDoQgDERP03+WHsHFe5iISyOCQdT19kIaIxq//Jtp3zTpAFaTaUYNUkwx+F6v1EYD+AUpyRkdKCYFqACrzgf9C352LfuxyWRWg1/yhT/nRE5IsZWuZtCSK8CPeI0e/hF+jV7AJM4PO7KWCyr390bSiNtEtQM=);strokeColor=#323232;spacingTop=-3;spacingBottom=-3;spacingLeft=-3;spacingRight=-3;points=[];labelBackgroundColor=none;rounded=0;html=1;whiteSpace=wrap;" parent="1" vertex="1">
            <mxGeometry x="159" y="768" width="99" height="377" as="geometry" />
          </mxCell>
        </UserObject>
        <UserObject label="" tags="Background" id="44">
          <mxCell style="vsdxID=43;fillColor=#FFFFFF;gradientColor=none;shape=stencil(nZLNDsIgEISfZq9mZWPrvdb3aFIqRISG4t/bF7ox1kab4G0GvtlsGICqQTW9BIFD8O4s77oNCugAQmirpNchKqAaqOqclyfvrrZl3zeJTOribmnCg3NEKSLwyRYnd2TSaDsji/JPsthvSvpNbxFz8N0n/Up/ZbMGL14ij15ZYo2M4l1Mp43hXuf3yyLjEX8Cqkc=);strokeColor=#000000;spacingTop=-3;spacingBottom=-3;spacingLeft=-3;spacingRight=-3;points=[];labelBackgroundColor=none;rounded=0;html=1;whiteSpace=wrap;" parent="1" vertex="1">
            <mxGeometry x="622" y="720" width="28" height="45" as="geometry" />
          </mxCell>
        </UserObject>
        <UserObject label="" tags="Background" id="45">
          <mxCell style="vsdxID=44;fillColor=#b266ff;gradientColor=none;shape=stencil(nZBRDoQgDERP03+WHsHFe5iISyOCQdT19kIaIxq//Jtp3zTpAFaTaUYNUkwx+F6v1EYD+AUpyRkdKCYFqACrzgf9C352LfuxyWRWg1/yhT/nRE5IsZWuZtCSK8CPeI0e/hF+jV7AJM4PO7KWCyr390bSiNtEtQM=);strokeColor=#000000;spacingTop=-3;spacingBottom=-3;spacingLeft=-3;spacingRight=-3;points=[];labelBackgroundColor=none;rounded=0;html=1;whiteSpace=wrap;" parent="1" vertex="1">
            <mxGeometry x="305" y="1203" width="721" height="119" as="geometry" />
          </mxCell>
        </UserObject>
        <UserObject label="&lt;div style=&quot;font-size: 1px&quot;&gt;&lt;p style=&quot;text-align:center;margin-left:0;margin-right:0;margin-top:0px;margin-bottom:0px;text-indent:0;vertical-align:middle;direction:ltr;&quot;&gt;&lt;font style=&quot;font-size:12px;font-family:0;color:#000000;direction:ltr;letter-spacing:0px;line-height:120%;opacity:1&quot;&gt;&lt;b&gt;mysql&lt;br/&gt;集群&lt;/b&gt;&lt;/font&gt;&lt;/p&gt;&lt;/div&gt;" tags="Background" id="46">
          <mxCell style="verticalAlign=middle;align=center;overflow=width;vsdxID=45;fillColor=#9dd7ed;gradientColor=#899dc0;shape=stencil(zZNNDsIgEIVPw9KEMsa4r/UejaWWiKWhP9bbC04tBQlx6W4e8w28YYBA3jdlxwmj/aDVjT9ENTQEToQx0TZci8FEBAoCea00v2o1thXqrrSkje5qsjvMWEdtBaNPVNn+Lc9IXkaNaOazi9whTGe2FNMPwAIAQgBix0nRbow5GPXxkLLm6HUhcBd4c3nw8xA7zreWurPfSX8OYbvpSXy1CzTZ7ZqON/vHY/dZE7iHXAsp8R9s8+HDN0v4aaB4AQ==);strokeColor=#0b6cc3;spacingTop=-3;spacingBottom=-3;spacingLeft=-3;spacingRight=-3;points=[];labelBackgroundColor=none;rounded=0;html=1;whiteSpace=wrap;" parent="1" vertex="1">
            <mxGeometry x="349" y="1217" width="69" height="91" as="geometry" />
          </mxCell>
        </UserObject>
        <UserObject label="" tags="Background" id="47">
          <mxCell style="vsdxID=46;fillColor=none;gradientColor=none;shape=stencil(lZHBDsIgEES/Zo8msMRDz7X+BwlYSBUqpVr/XsiW1BDT6G0G3uyEBUQ7GTlqQDbF4Af9tCoaECdAtM7oYGNSIDoQ7cUH3Qc/O0V+lJnM6uYfecJCOZYTyF7kONkzkfdZqkxyujwWdvWHlWYLlnQh8Nu4q3UfxRtMvvmnmtfVVXGzU7z34t/JJLaVJlPvOx3RX4nuDQ==);strokeColor=none;strokeWidth=0;spacingTop=-3;spacingBottom=-3;spacingLeft=-3;spacingRight=-3;points=[];labelBackgroundColor=none;rounded=0;html=1;whiteSpace=wrap;" parent="1" vertex="1">
            <mxGeometry x="349" y="1217" width="69" height="91" as="geometry" />
          </mxCell>
        </UserObject>
        <UserObject label="&lt;div style=&quot;font-size: 1px&quot;&gt;&lt;p style=&quot;text-align:center;margin-left:0;margin-right:0;margin-top:0px;margin-bottom:0px;text-indent:0;vertical-align:middle;direction:ltr;&quot;&gt;&lt;font style=&quot;font-size:12px;font-family:0;color:#000000;direction:ltr;letter-spacing:0px;line-height:120%;opacity:1&quot;&gt;&lt;b&gt;Oracle&lt;/b&gt;&lt;/font&gt;&lt;/p&gt;&lt;/div&gt;" tags="Background" id="48">
          <mxCell style="verticalAlign=middle;align=center;overflow=width;vsdxID=47;fillColor=#9dd7ed;gradientColor=#899dc0;shape=stencil(zZNNDsIgEIVPw9KEMsa4r/UejaWWiKWhP9bbC04tBQlx6W4e8w28YYBA3jdlxwmj/aDVjT9ENTQEToQx0TZci8FEBAoCea00v2o1thXqrrSkje5qsjvMWEdtBaNPVNn+Lc9IXkaNaOazi9whTGe2FNMPwAIAQgBix0nRbow5GPXxkLLm6HUhcBd4c3nw8xA7zreWurPfSX8OYbvpSXy1CzTZ7ZqON/vHY/dZE7iHXAsp8R9s8+HDN0v4aaB4AQ==);strokeColor=#0b6cc3;spacingTop=-3;spacingBottom=-3;spacingLeft=-3;spacingRight=-3;points=[];labelBackgroundColor=none;rounded=0;html=1;whiteSpace=wrap;" parent="1" vertex="1">
            <mxGeometry x="479" y="1217" width="69" height="91" as="geometry" />
          </mxCell>
        </UserObject>
        <UserObject label="" tags="Background" id="49">
          <mxCell style="vsdxID=48;fillColor=none;gradientColor=none;shape=stencil(lZHBDsIgEES/Zo8msMRDz7X+BwlYSBUqpVr/XsiW1BDT6G0G3uyEBUQ7GTlqQDbF4Af9tCoaECdAtM7oYGNSIDoQ7cUH3Qc/O0V+lJnM6uYfecJCOZYTyF7kONkzkfdZqkxyujwWdvWHlWYLlnQh8Nu4q3UfxRtMvvmnmtfVVXGzU7z34t/JJLaVJlPvOx3RX4nuDQ==);strokeColor=none;strokeWidth=0;spacingTop=-3;spacingBottom=-3;spacingLeft=-3;spacingRight=-3;points=[];labelBackgroundColor=none;rounded=0;html=1;whiteSpace=wrap;" parent="1" vertex="1">
            <mxGeometry x="479" y="1217" width="69" height="91" as="geometry" />
          </mxCell>
        </UserObject>
        <UserObject label="&lt;div style=&quot;font-size: 1px&quot;&gt;&lt;p style=&quot;text-align:center;margin-left:0;margin-right:0;margin-top:0px;margin-bottom:0px;text-indent:0;vertical-align:middle;direction:ltr;&quot;&gt;&lt;font style=&quot;font-size:12px;font-family:0;color:#000000;direction:ltr;letter-spacing:0px;line-height:120%;opacity:1&quot;&gt;&lt;b&gt;Redis&lt;br/&gt;集群&lt;/b&gt;&lt;/font&gt;&lt;/p&gt;&lt;/div&gt;" tags="Background" id="50">
          <mxCell style="verticalAlign=middle;align=center;overflow=width;vsdxID=49;fillColor=#9dd7ed;gradientColor=#899dc0;shape=stencil(zZNNDsIgEIVPw9KEMsa4r/UejaWWiKWhP9bbC04tBQlx6W4e8w28YYBA3jdlxwmj/aDVjT9ENTQEToQx0TZci8FEBAoCea00v2o1thXqrrSkje5qsjvMWEdtBaNPVNn+Lc9IXkaNaOazi9whTGe2FNMPwAIAQgBix0nRbow5GPXxkLLm6HUhcBd4c3nw8xA7zreWurPfSX8OYbvpSXy1CzTZ7ZqON/vHY/dZE7iHXAsp8R9s8+HDN0v4aaB4AQ==);strokeColor=#0b6cc3;spacingTop=-3;spacingBottom=-3;spacingLeft=-3;spacingRight=-3;points=[];labelBackgroundColor=none;rounded=0;html=1;whiteSpace=wrap;" parent="1" vertex="1">
            <mxGeometry x="610" y="1217" width="69" height="91" as="geometry" />
          </mxCell>
        </UserObject>
        <UserObject label="" tags="Background" id="51">
          <mxCell style="vsdxID=50;fillColor=none;gradientColor=none;shape=stencil(lZHBDsIgEES/Zo8msMRDz7X+BwlYSBUqpVr/XsiW1BDT6G0G3uyEBUQ7GTlqQDbF4Af9tCoaECdAtM7oYGNSIDoQ7cUH3Qc/O0V+lJnM6uYfecJCOZYTyF7kONkzkfdZqkxyujwWdvWHlWYLlnQh8Nu4q3UfxRtMvvmnmtfVVXGzU7z34t/JJLaVJlPvOx3RX4nuDQ==);strokeColor=none;strokeWidth=0;spacingTop=-3;spacingBottom=-3;spacingLeft=-3;spacingRight=-3;points=[];labelBackgroundColor=none;rounded=0;html=1;whiteSpace=wrap;" parent="1" vertex="1">
            <mxGeometry x="610" y="1217" width="69" height="91" as="geometry" />
          </mxCell>
        </UserObject>
        <UserObject label="&lt;div style=&quot;font-size: 1px&quot;&gt;&lt;p style=&quot;text-align:center;margin-left:0;margin-right:0;margin-top:0px;margin-bottom:0px;text-indent:0;vertical-align:middle;direction:ltr;&quot;&gt;&lt;font style=&quot;font-size:12px;font-family:0;color:#000000;direction:ltr;letter-spacing:0px;line-height:120%;opacity:1&quot;&gt;&lt;b&gt;MongoDB&lt;br/&gt;集群&lt;/b&gt;&lt;/font&gt;&lt;/p&gt;&lt;/div&gt;" tags="Background" id="52">
          <mxCell style="verticalAlign=middle;align=center;overflow=width;vsdxID=51;fillColor=#9dd7ed;gradientColor=#899dc0;shape=stencil(zZNNDsIgEIVPw9KEMsa4r/UejaWWiKWhP9bbC04tBQlx6W4e8w28YYBA3jdlxwmj/aDVjT9ENTQEToQx0TZci8FEBAoCea00v2o1thXqrrSkje5qsjvMWEdtBaNPVNn+Lc9IXkaNaOazi9whTGe2FNMPwAIAQgBix0nRbow5GPXxkLLm6HUhcBd4c3nw8xA7zreWurPfSX8OYbvpSXy1CzTZ7ZqON/vHY/dZE7iHXAsp8R9s8+HDN0v4aaB4AQ==);strokeColor=#0b6cc3;spacingTop=-3;spacingBottom=-3;spacingLeft=-3;spacingRight=-3;points=[];labelBackgroundColor=none;rounded=0;html=1;whiteSpace=wrap;" parent="1" vertex="1">
            <mxGeometry x="760" y="1217" width="69" height="91" as="geometry" />
          </mxCell>
        </UserObject>
        <UserObject label="" tags="Background" id="53">
          <mxCell style="vsdxID=52;fillColor=none;gradientColor=none;shape=stencil(lZHBDsIgEES/Zo8msMRDz7X+BwlYSBUqpVr/XsiW1BDT6G0G3uyEBUQ7GTlqQDbF4Af9tCoaECdAtM7oYGNSIDoQ7cUH3Qc/O0V+lJnM6uYfecJCOZYTyF7kONkzkfdZqkxyujwWdvWHlWYLlnQh8Nu4q3UfxRtMvvmnmtfVVXGzU7z34t/JJLaVJlPvOx3RX4nuDQ==);strokeColor=none;strokeWidth=0;spacingTop=-3;spacingBottom=-3;spacingLeft=-3;spacingRight=-3;points=[];labelBackgroundColor=none;rounded=0;html=1;whiteSpace=wrap;" parent="1" vertex="1">
            <mxGeometry x="760" y="1217" width="69" height="91" as="geometry" />
          </mxCell>
        </UserObject>
        <UserObject label="" tags="Background" id="54">
          <mxCell style="vsdxID=53;fillColor=#FFFFFF;gradientColor=none;shape=stencil(nZLNDsIgEISfZq9mZWPrvdb3aFIqRISG4t/bF7ox1kab4G0GvtlsGICqQTW9BIFD8O4s77oNCugAQmirpNchKqAaqOqclyfvrrZl3zeJTOribmnCg3NEKSLwyRYnd2TSaDsji/JPsthvSvpNbxFz8N0n/Up/ZbMGL14ij15ZYo2M4l1Mp43hXuf3yyLjEX8Cqkc=);strokeColor=#000000;spacingTop=-3;spacingBottom=-3;spacingLeft=-3;spacingRight=-3;points=[];labelBackgroundColor=none;rounded=0;html=1;whiteSpace=wrap;" parent="1" vertex="1">
            <mxGeometry x="631" y="1151" width="28" height="45" as="geometry" />
          </mxCell>
        </UserObject>
        <UserObject label="&lt;div style=&quot;font-size: 1px&quot;&gt;&lt;p style=&quot;text-align:center;margin-left:0;margin-right:0;margin-top:0px;margin-bottom:0px;text-indent:0;vertical-align:middle;direction:ltr;&quot;&gt;&lt;font style=&quot;font-size:21px;font-family:0;color:#000000;direction:ltr;letter-spacing:0px;line-height:120%;opacity:1&quot;&gt;&lt;b&gt;数&lt;br/&gt;据&lt;br/&gt;层&lt;/b&gt;&lt;/font&gt;&lt;/p&gt;&lt;/div&gt;" tags="Background" id="55">
          <mxCell style="verticalAlign=middle;align=center;overflow=width;vsdxID=54;fillColor=#b266ff;gradientColor=none;shape=stencil(nZBRDoQgDERP03+WHsHFe5iISyOCQdT19kIaIxq//Jtp3zTpAFaTaUYNUkwx+F6v1EYD+AUpyRkdKCYFqACrzgf9C352LfuxyWRWg1/yhT/nRE5IsZWuZtCSK8CPeI0e/hF+jV7AJM4PO7KWCyr390bSiNtEtQM=);strokeColor=#323232;spacingTop=-3;spacingBottom=-3;spacingLeft=-3;spacingRight=-3;points=[];labelBackgroundColor=none;rounded=0;html=1;whiteSpace=wrap;" parent="1" vertex="1">
            <mxGeometry x="155" y="1197" width="95" height="125" as="geometry" />
          </mxCell>
        </UserObject>
        <UserObject label="&lt;div style=&quot;font-size: 1px&quot;&gt;&lt;p style=&quot;text-align:center;margin-left:0;margin-right:0;margin-top:0px;margin-bottom:0px;text-indent:0;vertical-align:middle;direction:ltr;&quot;&gt;&lt;font style=&quot;font-size:12px;font-family:0;color:#000000;direction:ltr;letter-spacing:0px;line-height:120%;opacity:1&quot;&gt;&lt;b&gt;ES集群&lt;/b&gt;&lt;/font&gt;&lt;/p&gt;&lt;/div&gt;" tags="Background" id="56">
          <mxCell style="verticalAlign=middle;align=center;overflow=width;vsdxID=55;fillColor=#9dd7ed;gradientColor=#899dc0;shape=stencil(zZNNDsIgEIVPw9KEMsa4r/UejaWWiKWhP9bbC04tBQlx6W4e8w28YYBA3jdlxwmj/aDVjT9ENTQEToQx0TZci8FEBAoCea00v2o1thXqrrSkje5qsjvMWEdtBaNPVNn+Lc9IXkaNaOazi9whTGe2FNMPwAIAQgBix0nRbow5GPXxkLLm6HUhcBd4c3nw8xA7zreWurPfSX8OYbvpSXy1CzTZ7ZqON/vHY/dZE7iHXAsp8R9s8+HDN0v4aaB4AQ==);strokeColor=#0b6cc3;spacingTop=-3;spacingBottom=-3;spacingLeft=-3;spacingRight=-3;points=[];labelBackgroundColor=none;rounded=0;html=1;whiteSpace=wrap;" parent="1" vertex="1">
            <mxGeometry x="908" y="1217" width="69" height="91" as="geometry" />
          </mxCell>
        </UserObject>
        <UserObject label="" tags="Background" id="57">
          <mxCell style="vsdxID=56;fillColor=none;gradientColor=none;shape=stencil(lZHBDsIgEES/Zo8msMRDz7X+BwlYSBUqpVr/XsiW1BDT6G0G3uyEBUQ7GTlqQDbF4Af9tCoaECdAtM7oYGNSIDoQ7cUH3Qc/O0V+lJnM6uYfecJCOZYTyF7kONkzkfdZqkxyujwWdvWHlWYLlnQh8Nu4q3UfxRtMvvmnmtfVVXGzU7z34t/JJLaVJlPvOx3RX4nuDQ==);strokeColor=none;strokeWidth=0;spacingTop=-3;spacingBottom=-3;spacingLeft=-3;spacingRight=-3;points=[];labelBackgroundColor=none;rounded=0;html=1;whiteSpace=wrap;" parent="1" vertex="1">
            <mxGeometry x="908" y="1217" width="69" height="91" as="geometry" />
          </mxCell>
        </UserObject>
        <UserObject label="" tags="Background" id="58">
          <mxCell style="vsdxID=57;fillColor=#ffe6cc;gradientColor=none;shape=stencil(nZBRDoQgDERP03+WHsHFe5iISyOCQdT19kIaIxq//Jtp3zTpAFaTaUYNUkwx+F6v1EYD+AUpyRkdKCYFqACrzgf9C352LfuxyWRWg1/yhT/nRE5IsZWuZtCSK8CPeI0e/hF+jV7AJM4PO7KWCyr390bSiNtEtQM=);strokeColor=#000000;spacingTop=-3;spacingBottom=-3;spacingLeft=-3;spacingRight=-3;points=[];labelBackgroundColor=none;rounded=0;html=1;whiteSpace=wrap;" parent="1" vertex="1">
            <mxGeometry x="1040" y="201" width="113" height="1121" as="geometry" />
          </mxCell>
        </UserObject>
        <UserObject label="&lt;div style=&quot;font-size: 1px&quot;&gt;&lt;p style=&quot;text-align:center;margin-left:0;margin-right:0;margin-top:0px;margin-bottom:0px;text-indent:0;vertical-align:middle;direction:ltr;&quot;&gt;&lt;font style=&quot;font-size:12px;font-family:0;color:#000000;direction:ltr;letter-spacing:0px;line-height:120%;opacity:1&quot;&gt;登录认证&lt;/font&gt;&lt;/p&gt;&lt;/div&gt;" tags="Background" id="59">
          <mxCell style="verticalAlign=middle;align=center;overflow=width;vsdxID=58;fillColor=#ffb366;gradientColor=none;shape=stencil(nZBRDoQgDERP03+WHsHFe5iISyOCQdT19kIaIxq//Jtp3zTpAFaTaUYNUkwx+F6v1EYD+AUpyRkdKCYFqACrzgf9C352LfuxyWRWg1/yhT/nRE5IsZWuZtCSK8CPeI0e/hF+jV7AJM4PO7KWCyr390bSiNtEtQM=);strokeColor=#000000;spacingTop=-3;spacingBottom=-3;spacingLeft=-3;spacingRight=-3;points=[];labelBackgroundColor=none;rounded=0;html=1;whiteSpace=wrap;" parent="1" vertex="1">
            <mxGeometry x="1046" y="245" width="100" height="59" as="geometry" />
          </mxCell>
        </UserObject>
        <UserObject label="&lt;div style=&quot;font-size: 1px&quot;&gt;&lt;p style=&quot;text-align:center;margin-left:0;margin-right:0;margin-top:0px;margin-bottom:0px;text-indent:0;vertical-align:middle;direction:ltr;&quot;&gt;&lt;font style=&quot;font-size:12px;font-family:0;color:#000000;direction:ltr;letter-spacing:0px;line-height:120%;opacity:1&quot;&gt;权限认证&lt;/font&gt;&lt;/p&gt;&lt;/div&gt;" tags="Background" id="60">
          <mxCell style="verticalAlign=middle;align=center;overflow=width;vsdxID=59;fillColor=#ffb366;gradientColor=none;shape=stencil(nZBRDoQgDERP03+WHsHFe5iISyOCQdT19kIaIxq//Jtp3zTpAFaTaUYNUkwx+F6v1EYD+AUpyRkdKCYFqACrzgf9C352LfuxyWRWg1/yhT/nRE5IsZWuZtCSK8CPeI0e/hF+jV7AJM4PO7KWCyr390bSiNtEtQM=);strokeColor=#000000;spacingTop=-3;spacingBottom=-3;spacingLeft=-3;spacingRight=-3;points=[];labelBackgroundColor=none;rounded=0;html=1;whiteSpace=wrap;" parent="1" vertex="1">
            <mxGeometry x="1046" y="374" width="100" height="59" as="geometry" />
          </mxCell>
        </UserObject>
        <UserObject label="&lt;div style=&quot;font-size: 1px&quot;&gt;&lt;p style=&quot;text-align:center;margin-left:0;margin-right:0;margin-top:0px;margin-bottom:0px;text-indent:0;vertical-align:middle;direction:ltr;&quot;&gt;&lt;font style=&quot;font-size:12px;font-family:0;color:#000000;direction:ltr;letter-spacing:0px;line-height:120%;opacity:1&quot;&gt;服务治理&lt;br/&gt;&lt;/font&gt;&lt;/p&gt;&lt;/div&gt;" tags="Background" id="61">
          <mxCell style="verticalAlign=middle;align=center;overflow=width;vsdxID=60;fillColor=#ffb366;gradientColor=none;shape=stencil(nZBRDoQgDERP03+WHsHFe5iISyOCQdT19kIaIxq//Jtp3zTpAFaTaUYNUkwx+F6v1EYD+AUpyRkdKCYFqACrzgf9C352LfuxyWRWg1/yhT/nRE5IsZWuZtCSK8CPeI0e/hF+jV7AJM4PO7KWCyr390bSiNtEtQM=);strokeColor=#000000;spacingTop=-3;spacingBottom=-3;spacingLeft=-3;spacingRight=-3;points=[];labelBackgroundColor=none;rounded=0;html=1;whiteSpace=wrap;" parent="1" vertex="1">
            <mxGeometry x="1046" y="515" width="100" height="59" as="geometry" />
          </mxCell>
        </UserObject>
        <UserObject label="&lt;div style=&quot;font-size: 1px&quot;&gt;&lt;p style=&quot;text-align:center;margin-left:0;margin-right:0;margin-top:0px;margin-bottom:0px;text-indent:0;vertical-align:middle;direction:ltr;&quot;&gt;&lt;font style=&quot;font-size:12px;font-family:0;color:#000000;direction:ltr;letter-spacing:0px;line-height:120%;opacity:1&quot;&gt;异常处理&lt;br/&gt;&lt;/font&gt;&lt;/p&gt;&lt;/div&gt;" tags="Background" id="62">
          <mxCell style="verticalAlign=middle;align=center;overflow=width;vsdxID=61;fillColor=#ffb366;gradientColor=none;shape=stencil(nZBRDoQgDERP03+WHsHFe5iISyOCQdT19kIaIxq//Jtp3zTpAFaTaUYNUkwx+F6v1EYD+AUpyRkdKCYFqACrzgf9C352LfuxyWRWg1/yhT/nRE5IsZWuZtCSK8CPeI0e/hF+jV7AJM4PO7KWCyr390bSiNtEtQM=);strokeColor=#000000;spacingTop=-3;spacingBottom=-3;spacingLeft=-3;spacingRight=-3;points=[];labelBackgroundColor=none;rounded=0;html=1;whiteSpace=wrap;" parent="1" vertex="1">
            <mxGeometry x="1046" y="652" width="100" height="59" as="geometry" />
          </mxCell>
        </UserObject>
        <UserObject label="&lt;div style=&quot;font-size: 1px&quot;&gt;&lt;p style=&quot;text-align:center;margin-left:0;margin-right:0;margin-top:0px;margin-bottom:0px;text-indent:0;vertical-align:middle;direction:ltr;&quot;&gt;&lt;font style=&quot;font-size:12px;font-family:0;color:#000000;direction:ltr;letter-spacing:0px;line-height:120%;opacity:1&quot;&gt;缓存处理&lt;br/&gt;&lt;/font&gt;&lt;/p&gt;&lt;/div&gt;" tags="Background" id="63">
          <mxCell style="verticalAlign=middle;align=center;overflow=width;vsdxID=62;fillColor=#ffb366;gradientColor=none;shape=stencil(nZBRDoQgDERP03+WHsHFe5iISyOCQdT19kIaIxq//Jtp3zTpAFaTaUYNUkwx+F6v1EYD+AUpyRkdKCYFqACrzgf9C352LfuxyWRWg1/yhT/nRE5IsZWuZtCSK8CPeI0e/hF+jV7AJM4PO7KWCyr390bSiNtEtQM=);strokeColor=#000000;spacingTop=-3;spacingBottom=-3;spacingLeft=-3;spacingRight=-3;points=[];labelBackgroundColor=none;rounded=0;html=1;whiteSpace=wrap;" parent="1" vertex="1">
            <mxGeometry x="1046" y="794" width="100" height="59" as="geometry" />
          </mxCell>
        </UserObject>
        <UserObject label="&lt;div style=&quot;font-size: 1px&quot;&gt;&lt;p style=&quot;text-align:center;margin-left:0;margin-right:0;margin-top:0px;margin-bottom:0px;text-indent:0;vertical-align:middle;direction:ltr;&quot;&gt;&lt;font style=&quot;font-size:12px;font-family:0;color:#000000;direction:ltr;letter-spacing:0px;line-height:120%;opacity:1&quot;&gt;消息处理&lt;br/&gt;&lt;/font&gt;&lt;/p&gt;&lt;/div&gt;" tags="Background" id="64">
          <mxCell style="verticalAlign=middle;align=center;overflow=width;vsdxID=63;fillColor=#ffb366;gradientColor=none;shape=stencil(nZBRDoQgDERP03+WHsHFe5iISyOCQdT19kIaIxq//Jtp3zTpAFaTaUYNUkwx+F6v1EYD+AUpyRkdKCYFqACrzgf9C352LfuxyWRWg1/yhT/nRE5IsZWuZtCSK8CPeI0e/hF+jV7AJM4PO7KWCyr390bSiNtEtQM=);strokeColor=#000000;spacingTop=-3;spacingBottom=-3;spacingLeft=-3;spacingRight=-3;points=[];labelBackgroundColor=none;rounded=0;html=1;whiteSpace=wrap;" parent="1" vertex="1">
            <mxGeometry x="1046" y="933" width="100" height="59" as="geometry" />
          </mxCell>
        </UserObject>
        <UserObject label="&lt;div style=&quot;font-size: 1px&quot;&gt;&lt;p style=&quot;text-align:center;margin-left:0;margin-right:0;margin-top:0px;margin-bottom:0px;text-indent:0;vertical-align:middle;direction:ltr;&quot;&gt;&lt;font style=&quot;font-size:12px;font-family:0;color:#000000;direction:ltr;letter-spacing:0px;line-height:120%;opacity:1&quot;&gt;日志记录&lt;br/&gt;&lt;/font&gt;&lt;/p&gt;&lt;/div&gt;" tags="Background" id="65">
          <mxCell style="verticalAlign=middle;align=center;overflow=width;vsdxID=64;fillColor=#ffb366;gradientColor=none;shape=stencil(nZBRDoQgDERP03+WHsHFe5iISyOCQdT19kIaIxq//Jtp3zTpAFaTaUYNUkwx+F6v1EYD+AUpyRkdKCYFqACrzgf9C352LfuxyWRWg1/yhT/nRE5IsZWuZtCSK8CPeI0e/hF+jV7AJM4PO7KWCyr390bSiNtEtQM=);strokeColor=#000000;spacingTop=-3;spacingBottom=-3;spacingLeft=-3;spacingRight=-3;points=[];labelBackgroundColor=none;rounded=0;html=1;whiteSpace=wrap;" parent="1" vertex="1">
            <mxGeometry x="1046" y="1062" width="100" height="59" as="geometry" />
          </mxCell>
        </UserObject>
        <UserObject label="&lt;div style=&quot;font-size: 1px&quot;&gt;&lt;p style=&quot;text-align:center;margin-left:0;margin-right:0;margin-top:0px;margin-bottom:0px;text-indent:0;vertical-align:middle;direction:ltr;&quot;&gt;&lt;font style=&quot;font-size:12px;font-family:0;color:#000000;direction:ltr;letter-spacing:0px;line-height:120%;opacity:1&quot;&gt;文件管理&lt;br/&gt;&lt;/font&gt;&lt;/p&gt;&lt;/div&gt;" tags="Background" id="66">
          <mxCell style="verticalAlign=middle;align=center;overflow=width;vsdxID=65;fillColor=#ffb366;gradientColor=none;shape=stencil(nZBRDoQgDERP03+WHsHFe5iISyOCQdT19kIaIxq//Jtp3zTpAFaTaUYNUkwx+F6v1EYD+AUpyRkdKCYFqACrzgf9C352LfuxyWRWg1/yhT/nRE5IsZWuZtCSK8CPeI0e/hF+jV7AJM4PO7KWCyr390bSiNtEtQM=);strokeColor=#000000;spacingTop=-3;spacingBottom=-3;spacingLeft=-3;spacingRight=-3;points=[];labelBackgroundColor=none;rounded=0;html=1;whiteSpace=wrap;" parent="1" vertex="1">
            <mxGeometry x="1046" y="1197" width="100" height="59" as="geometry" />
          </mxCell>
        </UserObject>
      </root>
    </mxGraphModel>
  </diagram>
</mxfile>
